<svg width="30" height="30" viewBox="0 0 17 17" fill="none" xmlns="http://www.w3.org/2000/svg">
<path d="M9.67648 2.41162H7.61765L7.18873 3.95574L6.75981 5.49986L5.90197 8.58809L5.04412 11.6763L4.6152 13.2204L4.18628 14.7646H13.1078L12.5931 12.9116L11.3922 8.58809L10.5343 5.49986L10.1054 3.95574L9.67648 2.41162Z" fill="#2F88FF"/>
<path d="M13.1078 14.7646L12.5931 12.9116L11.3921 8.58809L10.5343 5.49986L10.1054 3.95574L9.67646 2.41162H7.61764L7.18872 3.95574L6.7598 5.49986L5.90195 8.58809L5.04411 11.6763L4.61519 13.2204L4.18627 14.7646M13.1078 14.7646H4.18627M13.1078 14.7646H2.47058H4.18627M13.1078 14.7646H14.8235" stroke="black" stroke-width="1.66667" stroke-linecap="round" stroke-linejoin="round"/>
<path d="M5.04407 11.6763H12.2499" stroke="white" stroke-width="1.66667" stroke-linecap="round" stroke-linejoin="round"/>
<path d="M11.3922 8.58789H5.90198" stroke="white" stroke-width="1.66667" stroke-linecap="round" stroke-linejoin="round"/>
<path d="M10.5343 5.5H6.75977" stroke="white" stroke-width="1.66667" stroke-linecap="round" stroke-linejoin="round"/>
<path d="M10.1053 3.95557L12.5931 12.9114" stroke="black" stroke-width="1.66667" stroke-linecap="round" stroke-linejoin="round"/>
<path d="M4.61523 13.2203L7.18876 3.95557" stroke="black" stroke-width="1.66667" stroke-linecap="round" stroke-linejoin="round"/>
</svg>
