<svg width="100" height="70" viewBox="0 0 200 225" fill="none" xmlns="http://www.w3.org/2000/svg">
<path d="M134.425 216.126C115.991 220.435 96.7555 219.891 78.5947 214.548C60.4339 209.205 43.9685 199.245 30.8053 185.641C17.6421 172.036 8.23072 155.251 3.48968 136.924C-1.25135 118.597 -1.1601 99.3535 3.75452 81.0721C8.66914 62.7908 18.2392 46.0959 31.5309 32.6165C44.8225 19.1372 61.3817 9.33395 79.5923 4.1635C97.8029 -1.00696 117.043 -1.368 135.435 3.1156C153.827 7.59921 170.742 16.7743 184.53 29.7455L150.233 66.2022C142.747 59.1603 133.564 54.1793 123.58 51.7452C113.595 49.3111 103.15 49.5071 93.2635 52.3141C83.3771 55.1211 74.3874 60.4431 67.1715 67.7609C59.9556 75.0786 54.7601 84.1421 52.092 94.0669C49.424 103.992 49.3744 114.438 51.9483 124.388C54.5221 134.338 59.6314 143.45 66.7776 150.836C73.9237 158.222 82.8626 163.629 92.7219 166.529C102.581 169.43 113.024 169.725 123.031 167.386L134.425 216.126Z" fill="url(#paint0_linear_858_10546)"/>
<defs>
<linearGradient id="paint0_linear_858_10546" x1="-5.6829e-07" y1="109.5" x2="184.53" y2="109.5" gradientUnits="userSpaceOnUse">
<stop stop-color="#00F5A0"/>
<stop offset="1" stop-color="#00D9F5"/>
</linearGradient>
</defs>
</svg>
