<svg width="100" height="100" viewBox="0 0 100 100" fill="none" xmlns="http://www.w3.org/2000/svg">
<path d="M45.375 26.7912L34.5234 37.6479L34.5232 37.6481C33.6551 38.5162 32.4777 39.0039 31.25 39.0039C30.0223 39.0039 28.8449 38.5162 27.9768 37.6481C27.1087 36.78 26.6211 35.6026 26.6211 34.375C26.6211 33.1473 27.1087 31.9699 27.9768 31.1018L46.7255 12.3531L45.375 26.7912ZM45.375 26.7912V59.375C45.375 60.6016 45.8623 61.778 46.7296 62.6453C47.597 63.5127 48.7734 64 50 64C51.2266 64 52.403 63.5127 53.2704 62.6453C54.1377 61.778 54.625 60.6016 54.625 59.375V26.7912L65.4766 37.6479L65.4768 37.6481C65.9067 38.078 66.417 38.4189 66.9786 38.6516C67.5402 38.8842 68.1421 39.0039 68.75 39.0039C69.3579 39.0039 69.9598 38.8842 70.5214 38.6516C71.083 38.4189 71.5933 38.078 72.0232 37.6481C72.453 37.2183 72.794 36.708 73.0266 36.1464C73.2592 35.5848 73.3789 34.9829 73.3789 34.375C73.3789 33.7671 73.2592 33.1652 73.0266 32.6036C72.794 32.0419 72.453 31.5316 72.0232 31.1018L53.2745 12.3531C53.2741 12.3527 53.2736 12.3523 53.2732 12.3518M45.375 26.7912L53.2732 12.3518M53.2732 12.3518C52.8438 11.9217 52.3339 11.5805 51.7726 11.3476M53.2732 12.3518L51.7726 11.3476M51.7726 11.3476C51.2107 11.1144 50.6083 10.9944 50 10.9944M51.7726 11.3476L50 10.9944M50 10.9944C49.3917 10.9944 48.7893 11.1144 48.2274 11.3476M50 10.9944L48.2274 11.3476M48.2274 11.3476C47.6661 11.5805 47.1562 11.9217 46.7268 12.3518L48.2274 11.3476ZM6.10463 74.8546C5.23728 75.722 4.75 76.8983 4.75 78.125C4.75 79.3516 5.23728 80.528 6.10463 81.3953C6.97199 82.2627 8.14838 82.75 9.375 82.75H90.625C91.8516 82.75 93.028 82.2627 93.8954 81.3953C94.7627 80.528 95.25 79.3516 95.25 78.125C95.25 76.8983 94.7627 75.722 93.8954 74.8546C93.028 73.9872 91.8516 73.5 90.625 73.5H9.375C8.14838 73.5 6.97199 73.9872 6.10463 74.8546Z" fill="#909090" stroke="#909090" stroke-width="3"/>
</svg>
