<svg width="30" height="30" viewBox="0 0 30 30" fill="none" xmlns="http://www.w3.org/2000/svg">
<path d="M13.5833 19.25H16.4166V22.0833H13.5833V19.25ZM13.5833 7.91667H16.4166V16.4167H13.5833V7.91667ZM14.9999 0.833332C7.16575 0.833332 0.833252 7.20833 0.833252 15C0.833252 18.7572 2.32581 22.3606 4.98257 25.0173C6.29807 26.3328 7.85979 27.3764 9.57857 28.0883C11.2973 28.8002 13.1395 29.1667 14.9999 29.1667C18.7572 29.1667 22.3605 27.6741 25.0173 25.0173C27.674 22.3606 29.1666 18.7572 29.1666 15C29.1666 13.1396 28.8002 11.2974 28.0882 9.57865C27.3763 7.85987 26.3328 6.29815 25.0173 4.98265C23.7018 3.66716 22.14 2.62365 20.4213 1.91171C18.7025 1.19976 16.8603 0.833332 14.9999 0.833332ZM14.9999 26.3333C11.9941 26.3333 9.11145 25.1393 6.98604 23.0139C4.86063 20.8885 3.66659 18.0058 3.66659 15C3.66659 11.9942 4.86063 9.11153 6.98604 6.98612C9.11145 4.86071 11.9941 3.66667 14.9999 3.66667C18.0057 3.66667 20.8884 4.86071 23.0138 6.98612C25.1392 9.11153 26.3333 11.9942 26.3333 15C26.3333 18.0058 25.1392 20.8885 23.0138 23.0139C20.8884 25.1393 18.0057 26.3333 14.9999 26.3333Z" fill="#FFD233"/>
</svg>
